<?xml version="1.0" encoding="utf-8"?>
<!-- @license lucide-static v1.41.0 - ISC -->
<!-- Void icon sprite - subset of Lucide. Symbols: 46 -->
<svg xmlns="http://www.w3.org/2000/svg" version="1.1" xmlns:c2pa="http://c2pa.org/manifest"><metadata><c2pa:manifest>AAAWgmp1bWIAAAAeanVtZGMycGEAEQAQgAAAqgA4m3EDYzJwYQAAABZcanVtYgAAAEdqdW1kYzJtYQARABCAAACqADibcQN1cm46YzJwYTo1OWM5MWY1OC04ZjE0LTQxYjEtYWZjOC1mMjkxZTUzNjgyOTcAAAADl2p1bWIAAAApanVtZGMyYXMAEQAQgAAAqgA4m3EDYzJwYS5hc3NlcnRpb25zAAAAALxqdW1iAAAARGp1bWRjYm9yABEAEIAAAKoAOJtxE2MycGEuaW5ncmVkaWVudC52MwAAAAAYYzJzaLeG7QtYnMG7qSHH2LnfUwwAAABwY2JvcqNpZGM6Zm9ybWF0bWltYWdlL3N2Zyt4bWxqaW5zdGFuY2VJRHgseG1wOmlpZDpjNGJiZDVjYi1iODg0LTRlOTUtOTc4ZC0wYzRlZTk4NjQ3Y2JscmVsYXRpb25zaGlwaHBhcmVudE9mAAAB4mp1bWIAAABBanVtZGNib3IAEQAQgAAAqgA4m3ETYzJwYS5hY3Rpb25zLnYyAAAAABhjMnNorFuw2bMasVfl9hAXCgWCDQAAAZljYm9yomdhY3Rpb25zgqJmYWN0aW9ua2MycGEub3BlbmVkanBhcmFtZXRlcnOha2luZ3JlZGllbnRzgaJjdXJseC1zZWxmI2p1bWJmPWMycGEuYXNzZXJ0aW9ucy9jMnBhLmluZ3JlZGllbnQudjNkaGFzaFggsmhAYy7TFNg/HkBwIQ+MTtxRhbfGiRe+3CgJ6ALkR4mkZmFjdGlvbngdY29tLmFudGhyb3BpYy5jbGF1ZGUucHJvdmlkZWRqcGFyYW1ldGVyc6F4H2NvbS5hbnRocm9waWMub3JpZ2luLWNvbmZpZGVuY2VndW5rbm93bmtkZXNjcmlwdGlvbnhmQ2xhdWRlIHByb3ZpZGVkIHRoaXMgZmlsZSBhdCB0aGUgcmVxdWVzdCBvZiBhIHVzZXIgYW5kIG1heSBoYXZlIGNyZWF0ZWQgb3IgbW9kaWZpZWQgdGhlIGZpbGUgY29udGVudHMubXNvZnR3YXJlQWdlbnShZG5hbWVmQ2xhdWRlcmFsbEFjdGlvbnNJbmNsdWRlZPUAAADIanVtYgAAAEBqdW1kY2JvcgARABCAAACqADibcRNjMnBhLmhhc2guZGF0YQAAAAAYYzJzaKpArwhk8NMPT5eTTT38xKkAAACAY2JvcqVjYWxnZnNoYTI1NmNwYWRMAAAAAAAAAAAAAAAAZGhhc2hYIBwM+cjj95aHhVe9jnTiOcJXftgUJEPwsdWSFeKP+IZ5ZG5hbWVuanVtYmYgbWFuaWZlc3RqZXhjbHVzaW9uc4GiZXN0YXJ0GQEEZmxlbmd0aBkeBAAAAj5qdW1iAAAAJ2p1bWRjMmNsABEAEIAAAKoAOJtxA2MycGEuY2xhaW0udjIAAAACD2Nib3KlY2FsZ2ZzaGEyNTZpc2lnbmF0dXJleE1zZWxmI2p1bWJmPS9jMnBhL3VybjpjMnBhOjU5YzkxZjU4LThmMTQtNDFiMS1hZmM4LWYyOTFlNTM2ODI5Ny9jMnBhLnNpZ25hdHVyZWppbnN0YW5jZUlEeCx4bXA6aWlkOjE1ZGM4OTQyLTcwZWYtNDZlMS1iZmZjLTM0NTU2YTg0NjA3ZnJjcmVhdGVkX2Fzc2VydGlvbnODomN1cmx4LXNlbGYjanVtYmY9YzJwYS5hc3NlcnRpb25zL2MycGEuaW5ncmVkaWVudC52M2RoYXNoWCCyaEBjLtMU2D8eQHAhD4xO3FGFt8aJF77cKAnoAuRHiaJjdXJseCpzZWxmI2p1bWJmPWMycGEuYXNzZXJ0aW9ucy9jMnBhLmFjdGlvbnMudjJkaGFzaFggaGFI6oErz4RJrfBxSQ3nCrI901pI5DbyxO9emBLQ82GiY3VybHgpc2VsZiNqdW1iZj1jMnBhLmFzc2VydGlvbnMvYzJwYS5oYXNoLmRhdGFkaGFzaFggi6lk/6bUh4hnbUE1x7/adYwOp6wUdBN4XsIowz/0zO10Y2xhaW1fZ2VuZXJhdG9yX2luZm+jZG5hbWVvQW50aHJvcGljIEZpbGVzZ3ZlcnNpb25lMS4wLjBrc3BlY1ZlcnNpb25lMi40LjAAABA4anVtYgAAAChqdW1kYzJjcwARABCAAACqADibcQNjMnBhLnNpZ25hdHVyZQAAABAIY2JvctKEWQISogEmGCFZAgowggIGMIIBjaADAgECAhRA5aAK7sI50L64g/oGQgU9Z1UTADAKBggqhkjOPQQDAzBJMRcwFQYDVQQKEw5BbnRocm9waWMsIFBCQzEuMCwGA1UEAxMlQW50aHJvcGljIENvbnRlbnQgQ3JlZGVudGlhbHMgUm9vdCBDQTAeFw0yNjA4MDcxODQzNTZaFw0yODA4MDYxOTQzNTZaMEQxFzAVBgNVBAoTDkFudGhyb3BpYywgUEJDMSkwJwYDVQQDEyBBbnRocm9waWMgQ2xhdWRlIENvbnRlbnQgU2lnbmluZzBZMBMGByqGSM49AgEGCCqGSM49AwEHA0IABJh6CmvLUBgFFNU0vUKlOVtE6djd17L5SuwX0LemFisBM3dkd/3cyjxFA3Qo5S46fX0/ihY0VZ7mfb9KF703t5OjWDBWMA4GA1UdDwEB/wQEAwIHgDAVBgNVHSUEDjAMBgorBgEEAYPoXgIBMAwGA1UdEwEB/wQCMAAwHwYDVR0jBBgwFoAUzlHiBIFOZFsj+OPEz5o+nMHXXMIwCgYIKoZIzj0EAwMDZwAwZAIwMXMdFJ4BetLLVY7ORuE9noqbbAZOZn/aArXyTwFAZfKrPzxF2vPoJNf1+UCdg1XGAjBwX1zd9WGqYkqmL5SFqw1QySjr1zJfpJM9+1rdDwSPLMOPOjKuiXjoU/pUUeG9RwmhY3BhZFkNngAAAAAAAAAAAAAAAAAAAAAAAAAAAAAAAAAAAAAAAAAAAAAAAAAAAAAAAAAAAAAAAAAAAAAAAAAAAAAAAAAAAAAAAAAAAAAAAAAAAAAAAAAAAAAAAAAAAAAAAAAAAAAAAAAAAAAAAAAAAAAAAAAAAAAAAAAAAAAAAAAAAAAAAAAAAAAAAAAAAAAAAAAAAAAAAAAAAAAAAAAAAAAAAAAAAAAAAAAAAAAAAAAAAAAAAAAAAAAAAAAAAAAAAAAAAAAAAAAAAAAAAAAAAAAAAAAAAAAAAAAAAAAAAAAAAAAAAAAAAAAAAAAAAAAAAAAAAAAAAAAAAAAAAAAAAAAAAAAAAAAAAAAAAAAAAAAAAAAAAAAAAAAAAAAAAAAAAAAAAAAAAAAAAAAAAAAAAAAAAAAAAAAAAAAAAAAAAAAAAAAAAAAAAAAAAAAAAAAAAAAAAAAAAAAAAAAAAAAAAAAAAAAAAAAAAAAAAAAAAAAAAAAAAAAAAAAAAAAAAAAAAAAAAAAAAAAAAAAAAAAAAAAAAAAAAAAAAAAAAAAAAAAAAAAAAAAAAAAAAAAAAAAAAAAAAAAAAAAAAAAAAAAAAAAAAAAAAAAAAAAAAAAAAAAAAAAAAAAAAAAAAAAAAAAAAAAAAAAAAAAAAAAAAAAAAAAAAAAAAAAAAAAAAAAAAAAAAAAAAAAAAAAAAAAAAAAAAAAAAAAAAAAAAAAAAAAAAAAAAAAAAAAAAAAAAAAAAAAAAAAAAAAAAAAAAAAAAAAAAAAAAAAAAAAAAAAAAAAAAAAAAAAAAAAAAAAAAAAAAAAAAAAAAAAAAAAAAAAAAAAAAAAAAAAAAAAAAAAAAAAAAAAAAAAAAAAAAAAAAAAAAAAAAAAAAAAAAAAAAAAAAAAAAAAAAAAAAAAAAAAAAAAAAAAAAAAAAAAAAAAAAAAAAAAAAAAAAAAAAAAAAAAAAAAAAAAAAAAAAAAAAAAAAAAAAAAAAAAAAAAAAAAAAAAAAAAAAAAAAAAAAAAAAAAAAAAAAAAAAAAAAAAAAAAAAAAAAAAAAAAAAAAAAAAAAAAAAAAAAAAAAAAAAAAAAAAAAAAAAAAAAAAAAAAAAAAAAAAAAAAAAAAAAAAAAAAAAAAAAAAAAAAAAAAAAAAAAAAAAAAAAAAAAAAAAAAAAAAAAAAAAAAAAAAAAAAAAAAAAAAAAAAAAAAAAAAAAAAAAAAAAAAAAAAAAAAAAAAAAAAAAAAAAAAAAAAAAAAAAAAAAAAAAAAAAAAAAAAAAAAAAAAAAAAAAAAAAAAAAAAAAAAAAAAAAAAAAAAAAAAAAAAAAAAAAAAAAAAAAAAAAAAAAAAAAAAAAAAAAAAAAAAAAAAAAAAAAAAAAAAAAAAAAAAAAAAAAAAAAAAAAAAAAAAAAAAAAAAAAAAAAAAAAAAAAAAAAAAAAAAAAAAAAAAAAAAAAAAAAAAAAAAAAAAAAAAAAAAAAAAAAAAAAAAAAAAAAAAAAAAAAAAAAAAAAAAAAAAAAAAAAAAAAAAAAAAAAAAAAAAAAAAAAAAAAAAAAAAAAAAAAAAAAAAAAAAAAAAAAAAAAAAAAAAAAAAAAAAAAAAAAAAAAAAAAAAAAAAAAAAAAAAAAAAAAAAAAAAAAAAAAAAAAAAAAAAAAAAAAAAAAAAAAAAAAAAAAAAAAAAAAAAAAAAAAAAAAAAAAAAAAAAAAAAAAAAAAAAAAAAAAAAAAAAAAAAAAAAAAAAAAAAAAAAAAAAAAAAAAAAAAAAAAAAAAAAAAAAAAAAAAAAAAAAAAAAAAAAAAAAAAAAAAAAAAAAAAAAAAAAAAAAAAAAAAAAAAAAAAAAAAAAAAAAAAAAAAAAAAAAAAAAAAAAAAAAAAAAAAAAAAAAAAAAAAAAAAAAAAAAAAAAAAAAAAAAAAAAAAAAAAAAAAAAAAAAAAAAAAAAAAAAAAAAAAAAAAAAAAAAAAAAAAAAAAAAAAAAAAAAAAAAAAAAAAAAAAAAAAAAAAAAAAAAAAAAAAAAAAAAAAAAAAAAAAAAAAAAAAAAAAAAAAAAAAAAAAAAAAAAAAAAAAAAAAAAAAAAAAAAAAAAAAAAAAAAAAAAAAAAAAAAAAAAAAAAAAAAAAAAAAAAAAAAAAAAAAAAAAAAAAAAAAAAAAAAAAAAAAAAAAAAAAAAAAAAAAAAAAAAAAAAAAAAAAAAAAAAAAAAAAAAAAAAAAAAAAAAAAAAAAAAAAAAAAAAAAAAAAAAAAAAAAAAAAAAAAAAAAAAAAAAAAAAAAAAAAAAAAAAAAAAAAAAAAAAAAAAAAAAAAAAAAAAAAAAAAAAAAAAAAAAAAAAAAAAAAAAAAAAAAAAAAAAAAAAAAAAAAAAAAAAAAAAAAAAAAAAAAAAAAAAAAAAAAAAAAAAAAAAAAAAAAAAAAAAAAAAAAAAAAAAAAAAAAAAAAAAAAAAAAAAAAAAAAAAAAAAAAAAAAAAAAAAAAAAAAAAAAAAAAAAAAAAAAAAAAAAAAAAAAAAAAAAAAAAAAAAAAAAAAAAAAAAAAAAAAAAAAAAAAAAAAAAAAAAAAAAAAAAAAAAAAAAAAAAAAAAAAAAAAAAAAAAAAAAAAAAAAAAAAAAAAAAAAAAAAAAAAAAAAAAAAAAAAAAAAAAAAAAAAAAAAAAAAAAAAAAAAAAAAAAAAAAAAAAAAAAAAAAAAAAAAAAAAAAAAAAAAAAAAAAAAAAAAAAAAAAAAAAAAAAAAAAAAAAAAAAAAAAAAAAAAAAAAAAAAAAAAAAAAAAAAAAAAAAAAAAAAAAAAAAAAAAAAAAAAAAAAAAAAAAAAAAAAAAAAAAAAAAAAAAAAAAAAAAAAAAAAAAAAAAAAAAAAAAAAAAAAAAAAAAAAAAAAAAAAAAAAAAAAAAAAAAAAAAAAAAAAAAAAAAAAAAAAAAAAAAAAAAAAAAAAAAAAAAAAAAAAAAAAAAAAAAAAAAAAAAAAAAAAAAAAAAAAAAAAAAAAAAAAAAAAAAAAAAAAAAAAAAAAAAAAAAAAAAAAAAAAAAAAAAAAAAAAAAAAAAAAAAAAAAAAAAAAAAAAAAAAAAAAAAAAAAAAAAAAAAAAAAAAAAAAAAAAAAAAAAAAAAAAAAAAAAAAAAAAAAAAAAAAAAAAAAAAAAAAAAAAAAAAAAAAAAAAAAAAAAAAAAAAAAAAAAAAAAAAAAAAAAAAAAAAAAAAAAAAAAAAAAAAAAAAAAAAAAAAAAAAAAAAAAAAAAAAAAAAAAAAAAAAAAAAAAAAAAAAAAAAAAAAAAAAAAAAAAAAAAAAAAAAAAAAAAAAAAAAAAAAAAAAAAAAAAAAAAAAAAAAAAAAAAAAAAAAAAAAAAAAAAAAAAAAAAAAAAAAAAAAAAAAAAAAAAAAAAAAAAAAAAAAAAAAAAAAAAAAAAAAAAAAAAAAAAAAAAAAAAAAAAAAAAAAAAAAAAAAAAAAAAAAAAAAAAAAAAAAAAAAAAAAAAAAAAAAAAAAAAAAAAAAAAAAAAAAAAAAAAAAAAAAAAAAAAAAAAAAAAAAAAAAAAAAAAAAAAAAAAAAAAAAAAAAAAAAAAAAAAAAAAAAAAAAAAAAAAAAAAAAAAAAAAAAAAAAAAAAAAAAAAAAAAAAAAAAAAAAAAAAAAAAAAAAAAAAAAAAAAAAAAAAAAAAAAAAAAAAAAAAAAAAAAAAAAAAAAAAAAAAAAAAAAAAAAAAAAAAAAAAAAAAAAAAAAAAAAAAAAAAAAAAAAAAAAAAAAAAAAAAAAAAAAAAAAAAAAAAAAAAAAAAAAAAAAAAAAAAAAAAAAAAAAAAAAAAAAAAAAAAAAAAAAAAAAAAAAAAAAAAAAAAAAAAAAAAAAAAAAAAAAAAAAAAAAAAAAAAAAAAAAAAAAAAAAAAAAAAAAAAAAAAAAAAAAAAAAAAAAAAAAAAAAAAAAAAAAAAAAAAAAAAAAAAAAAAAAAAAAAAAAAAAAAAAAAAAAAAAAAAAAAAAAAAAAAAAAAAAAAAAAAAAAAAAAAAAAAAAAAAAAAAAAAAAAAAAAAAAAAAAAAAAAAAAAAAAAAAAAAAAAAAAAAAAAAAAAAAAAAAAAAAAAAAAAAAAAAAAAAAAAAAAAAAAAAAAAAAAAAAAAAAAAAAAAAAAAAAAAAAAAAAAAAAAAAAAAAAAAAAAAAAAAAAAAAAAAAAAAAAAAAAAAAAAAAAAAAAAAAAAAAAAAAAAAAAAAAAAAAAAAAAAAAAAAAAAAAAAAAAAAAAAAAAAAAAAAAAAAAAAAAAAAAAAAAAAAAAAAAAAAAAAAAAAAAAAAAAAAAAAAAAAAAAAAAAAAAAAAAAAAAAAAAAAAAAAAAAAAAAAAAAAAAAAAAAAAAAAAAAAAAAAAAAAAAAAAAAAAAAAAAAAAAAAAAAAAAAAAAAAAAAAAAAAAAAAAAAAAAAAAAAAAAAAAAAAAAAAAAAAAAAAAAAAAAAAAAAAAAAAAAAAAAAAAAAAAAAAAAAAAAAAAAAAAAAAAAAAAAAAAAAAAAAAAAAAAAAAAAAAAAAAAAAAAAAAAAAAAAAAAAAAAAAAAAAAAAAAAAAAAAAAAAAAAAAAAAAAAAAAAAAAAAAAAAAAAAAAAAAAAAAAAAAAAAAAAAAAAAAAAAAAAAAAAAAAAAAAAAAAAAAAAAAAAAAAAAAAAAAAAAAAAAAAAAAAAAAAAAAAAAAAAAAPZYQGvLK7X9jSl5oncR+JxSRDiY2qsJIwtwMdshH4e+guAmxeBTQc1P0oX0dWWGsQsRkbmi9cLW+IP/ZW7JQ+bAIsA=</c2pa:manifest></metadata>
  <defs>
    <symbol id="search" viewBox="0 0 24 24">
      <path d="m21 21-4.34-4.34" />
      <circle cx="11" cy="11" r="8" />
    </symbol>
    <symbol id="shopping-bag" viewBox="0 0 24 24">
      <path d="M16 10a4 4 0 0 1-8 0" />
      <path d="M3.103 6.034h17.794" />
      <path d="M3.4 5.467a2 2 0 0 0-.4 1.2V20a2 2 0 0 0 2 2h14a2 2 0 0 0 2-2V6.667a2 2 0 0 0-.4-1.2l-2-2.667A2 2 0 0 0 17 2H7a2 2 0 0 0-1.6.8z" />
    </symbol>
    <symbol id="heart" viewBox="0 0 24 24">
      <path d="M2 9.5a5.5 5.5 0 0 1 9.591-3.676.56.56 0 0 0 .818 0A5.49 5.49 0 0 1 22 9.5c0 2.29-1.5 4-3 5.5l-5.492 5.313a2 2 0 0 1-3 .019L5 15c-1.5-1.5-3-3.2-3-5.5" />
    </symbol>
    <symbol id="user" viewBox="0 0 24 24">
      <path d="M19 21v-2a4 4 0 0 0-4-4H9a4 4 0 0 0-4 4v2" />
      <circle cx="12" cy="7" r="4" />
    </symbol>
    <symbol id="menu" viewBox="0 0 24 24">
      <path d="M4 5h16" />
      <path d="M4 12h16" />
      <path d="M4 19h16" />
    </symbol>
    <symbol id="x" viewBox="0 0 24 24">
      <path d="M18 6 6 18" />
      <path d="m6 6 12 12" />
    </symbol>
    <symbol id="chevron-down" viewBox="0 0 24 24">
      <path d="m6 9 6 6 6-6" />
    </symbol>
    <symbol id="chevron-up" viewBox="0 0 24 24">
      <path d="m18 15-6-6-6 6" />
    </symbol>
    <symbol id="chevron-left" viewBox="0 0 24 24">
      <path d="m15 18-6-6 6-6" />
    </symbol>
    <symbol id="chevron-right" viewBox="0 0 24 24">
      <path d="m9 18 6-6-6-6" />
    </symbol>
    <symbol id="sliders-horizontal" viewBox="0 0 24 24">
      <path d="M10 5H3" />
      <path d="M12 19H3" />
      <path d="M14 3v4" />
      <path d="M16 17v4" />
      <path d="M21 12h-9" />
      <path d="M21 19h-5" />
      <path d="M21 5h-7" />
      <path d="M8 10v4" />
      <path d="M8 12H3" />
    </symbol>
    <symbol id="star" viewBox="0 0 24 24">
      <path d="M11.525 2.295a.53.53 0 0 1 .95 0l2.31 4.679a2.123 2.123 0 0 0 1.595 1.16l5.166.756a.53.53 0 0 1 .294.904l-3.736 3.638a2.123 2.123 0 0 0-.611 1.878l.882 5.14a.53.53 0 0 1-.771.56l-4.618-2.428a2.122 2.122 0 0 0-1.973 0L6.396 21.01a.53.53 0 0 1-.77-.56l.881-5.139a2.122 2.122 0 0 0-.611-1.879L2.16 9.795a.53.53 0 0 1 .294-.906l5.165-.755a2.122 2.122 0 0 0 1.597-1.16z" />
    </symbol>
    <symbol id="star-half" viewBox="0 0 24 24">
      <path d="M12 18.338a2.1 2.1 0 0 0-.987.244L6.396 21.01a.53.53 0 0 1-.77-.56l.881-5.139a2.12 2.12 0 0 0-.611-1.879L2.16 9.795a.53.53 0 0 1 .294-.906l5.165-.755a2.12 2.12 0 0 0 1.597-1.16l2.309-4.679A.53.53 0 0 1 12 2" />
    </symbol>
    <symbol id="arrow-right" viewBox="0 0 24 24">
      <path d="M5 12h14" />
      <path d="m12 5 7 7-7 7" />
    </symbol>
    <symbol id="arrow-left" viewBox="0 0 24 24">
      <path d="m12 19-7-7 7-7" />
      <path d="M19 12H5" />
    </symbol>
    <symbol id="plus" viewBox="0 0 24 24">
      <path d="M5 12h14" />
      <path d="M12 5v14" />
    </symbol>
    <symbol id="minus" viewBox="0 0 24 24">
      <path d="M5 12h14" />
    </symbol>
    <symbol id="check" viewBox="0 0 24 24">
      <path d="M20 6 9 17l-5-5" />
    </symbol>
    <symbol id="pencil" viewBox="0 0 24 24">
      <path d="M21.174 6.812a1 1 0 0 0-3.986-3.987L3.842 16.174a2 2 0 0 0-.5.83l-1.321 4.352a.5.5 0 0 0 .623.622l4.353-1.32a2 2 0 0 0 .83-.497z" />
      <path d="m15 5 4 4" />
    </symbol>
    <symbol id="eye" viewBox="0 0 24 24">
      <path d="M2.062 12.348a1 1 0 0 1 0-.696 10.75 10.75 0 0 1 19.876 0 1 1 0 0 1 0 .696 10.75 10.75 0 0 1-19.876 0" />
      <circle cx="12" cy="12" r="3" />
    </symbol>
    <symbol id="eye-off" viewBox="0 0 24 24">
      <path d="M10.733 5.076a10.744 10.744 0 0 1 11.205 6.575 1 1 0 0 1 0 .696 10.747 10.747 0 0 1-1.444 2.49" />
      <path d="M14.084 14.158a3 3 0 0 1-4.242-4.242" />
      <path d="M17.479 17.499a10.75 10.75 0 0 1-15.417-5.151 1 1 0 0 1 0-.696 10.75 10.75 0 0 1 4.446-5.143" />
      <path d="m2 2 20 20" />
    </symbol>
    <symbol id="lock" viewBox="0 0 24 24">
      <rect width="18" height="11" x="3" y="11" rx="2" ry="2" />
      <path d="M7 11V7a5 5 0 0 1 10 0v4" />
    </symbol>
    <symbol id="credit-card" viewBox="0 0 24 24">
      <rect width="20" height="14" x="2" y="5" rx="2" />
      <line x1="2" x2="22" y1="10" y2="10" />
    </symbol>
    <symbol id="truck" viewBox="0 0 24 24">
      <path d="M14 18V6a2 2 0 0 0-2-2H4a2 2 0 0 0-2 2v11a1 1 0 0 0 1 1h2" />
      <path d="M15 18H9" />
      <path d="M19 18h2a1 1 0 0 0 1-1v-3.65a1 1 0 0 0-.22-.624l-3.48-4.35A1 1 0 0 0 17.52 8H14" />
      <circle cx="17" cy="18" r="2" />
      <circle cx="7" cy="18" r="2" />
    </symbol>
    <symbol id="package" viewBox="0 0 24 24">
      <path d="M11 21.73a2 2 0 0 0 2 0l7-4A2 2 0 0 0 21 16V8a2 2 0 0 0-1-1.73l-7-4a2 2 0 0 0-2 0l-7 4A2 2 0 0 0 3 8v8a2 2 0 0 0 1 1.73z" />
      <path d="M12 22V12" />
      <polyline points="3.29 7 12 12 20.71 7" />
      <path d="m7.5 4.27 9 5.15" />
    </symbol>
    <symbol id="rotate-ccw" viewBox="0 0 24 24">
      <path d="M3 12a9 9 0 1 0 9-9 9.75 9.75 0 0 0-6.74 2.74L3 8" />
      <path d="M3 3v5h5" />
    </symbol>
    <symbol id="shield-check" viewBox="0 0 24 24">
      <path d="M20 13c0 5-3.5 7.5-7.66 8.95a1 1 0 0 1-.67-.01C7.5 20.5 4 18 4 13V6a1 1 0 0 1 1-1c2 0 4.5-1.2 6.24-2.72a1.17 1.17 0 0 1 1.52 0C14.51 3.81 17 5 19 5a1 1 0 0 1 1 1z" />
      <path d="m9 12 2 2 4-4" />
    </symbol>
    <symbol id="map-pin" viewBox="0 0 24 24">
      <path d="M20 10c0 4.993-5.539 10.193-7.399 11.799a1 1 0 0 1-1.202 0C9.539 20.193 4 14.993 4 10a8 8 0 0 1 16 0" />
      <circle cx="12" cy="10" r="3" />
    </symbol>
    <symbol id="phone" viewBox="0 0 24 24">
      <path d="M13.832 16.568a1 1 0 0 0 1.213-.303l.355-.465A2 2 0 0 1 17 15h3a2 2 0 0 1 2 2v3a2 2 0 0 1-2 2A18 18 0 0 1 2 4a2 2 0 0 1 2-2h3a2 2 0 0 1 2 2v3a2 2 0 0 1-.8 1.6l-.468.351a1 1 0 0 0-.292 1.233 14 14 0 0 0 6.392 6.384" />
    </symbol>
    <symbol id="mail" viewBox="0 0 24 24">
      <path d="m22 7-8.991 5.727a2 2 0 0 1-2.009 0L2 7" />
      <rect x="2" y="4" width="20" height="16" rx="2" />
    </symbol>
    <symbol id="globe" viewBox="0 0 24 24">
      <circle cx="12" cy="12" r="10" />
      <path d="M12 2a14.5 14.5 0 0 0 0 20 14.5 14.5 0 0 0 0-20" />
      <path d="M2 12h20" />
    </symbol>
    <symbol id="languages" viewBox="0 0 24 24">
      <path d="m5 8 6 6" />
      <path d="m4 14 6-6 2-3" />
      <path d="M2 5h12" />
      <path d="M7 2h1" />
      <path d="m22 22-5-10-5 10" />
      <path d="M14 18h6" />
    </symbol>
    <symbol id="sun" viewBox="0 0 24 24">
      <circle cx="12" cy="12" r="4" />
      <path d="M12 2v2" />
      <path d="M12 20v2" />
      <path d="m4.93 4.93 1.41 1.41" />
      <path d="m17.66 17.66 1.41 1.41" />
      <path d="M2 12h2" />
      <path d="M20 12h2" />
      <path d="m6.34 17.66-1.41 1.41" />
      <path d="m19.07 4.93-1.41 1.41" />
    </symbol>
    <symbol id="moon" viewBox="0 0 24 24">
      <path d="M20.985 12.486a9 9 0 1 1-9.473-9.472c.405-.022.617.46.402.803a6 6 0 0 0 8.268 8.268c.344-.215.825-.004.803.401" />
    </symbol>
    <symbol id="loader-circle" viewBox="0 0 24 24">
      <path d="M21 12a9 9 0 1 1-6.219-8.56" />
    </symbol>
    <symbol id="circle-alert" viewBox="0 0 24 24">
      <circle cx="12" cy="12" r="10" />
      <line x1="12" x2="12" y1="8" y2="12" />
      <line x1="12" x2="12.01" y1="16" y2="16" />
    </symbol>
    <symbol id="circle-check" viewBox="0 0 24 24">
      <circle cx="12" cy="12" r="10" />
      <path d="m16 9-5.5 5.5L8 12" />
    </symbol>
    <symbol id="info" viewBox="0 0 24 24">
      <circle cx="12" cy="12" r="10" />
      <path d="M12 16v-4" />
      <path d="M12 8h.01" />
    </symbol>
    <symbol id="triangle-alert" viewBox="0 0 24 24">
      <path d="m21.73 18-8-14a2 2 0 0 0-3.48 0l-8 14A2 2 0 0 0 4 21h16a2 2 0 0 0 1.73-3" />
      <path d="M12 9v4" />
      <path d="M12 17h.01" />
    </symbol>
    <symbol id="external-link" viewBox="0 0 24 24">
      <path d="M15 3h6v6" />
      <path d="M10 14 21 3" />
      <path d="M18 13v6a2 2 0 0 1-2 2H5a2 2 0 0 1-2-2V8a2 2 0 0 1 2-2h6" />
    </symbol>
    <symbol id="share-2" viewBox="0 0 24 24">
      <circle cx="18" cy="5" r="3" />
      <circle cx="6" cy="12" r="3" />
      <circle cx="18" cy="19" r="3" />
      <line x1="8.59" x2="15.42" y1="13.51" y2="17.49" />
      <line x1="15.41" x2="8.59" y1="6.51" y2="10.49" />
    </symbol>
    <symbol id="copy" viewBox="0 0 24 24">
      <rect width="14" height="14" x="8" y="8" rx="2" ry="2" />
      <path d="M4 16c-1.1 0-2-.9-2-2V4c0-1.1.9-2 2-2h10c1.1 0 2 .9 2 2" />
    </symbol>
    <symbol id="log-out" viewBox="0 0 24 24">
      <path d="m16 17 5-5-5-5" />
      <path d="M21 12H9" />
      <path d="M9 21H5a2 2 0 0 1-2-2V5a2 2 0 0 1 2-2h4" />
    </symbol>
    <symbol id="settings" viewBox="0 0 24 24">
      <path d="M9.671 4.136a2.34 2.34 0 0 1 4.659 0 2.34 2.34 0 0 0 3.319 1.915 2.34 2.34 0 0 1 2.33 4.033 2.34 2.34 0 0 0 0 3.831 2.34 2.34 0 0 1-2.33 4.033 2.34 2.34 0 0 0-3.319 1.915 2.34 2.34 0 0 1-4.659 0 2.34 2.34 0 0 0-3.32-1.915 2.34 2.34 0 0 1-2.33-4.033 2.34 2.34 0 0 0 0-3.831A2.34 2.34 0 0 1 6.35 6.051a2.34 2.34 0 0 0 3.319-1.915" />
      <circle cx="12" cy="12" r="3" />
    </symbol>
    <symbol id="grid-2x2" viewBox="0 0 24 24">
      <path d="M12 3v18" />
      <path d="M3 12h18" />
      <rect x="3" y="3" width="18" height="18" rx="2" />
    </symbol>
    <symbol id="list" viewBox="0 0 24 24">
      <path d="M3 5h.01" />
      <path d="M3 12h.01" />
      <path d="M3 19h.01" />
      <path d="M8 5h13" />
      <path d="M8 12h13" />
      <path d="M8 19h13" />
    </symbol>
  </defs>
</svg>